<svg width="30" height="30" xmlns="http://www.w3.org/2000/svg" xmlns:xlink="http://www.w3.org/1999/xlink" xml:space="preserve" overflow="hidden"><g transform="translate(-170 -304)"><path d="M185.625 325.625 185.625 327.281 184.375 327.281 184.375 325.625C183.656 325.375 183.125 324.688 183.125 323.844 183.125 322.812 183.969 321.969 185 321.969 186.031 321.969 186.875 322.812 186.875 323.844 186.875 324.656 186.344 325.344 185.625 325.625ZM180.312 314.156C180.312 311.562 182.406 309.469 185 309.469 187.594 309.469 189.688 311.562 189.688 314.156L189.688 317.625 185 317.281 180.312 317.625 180.312 314.156ZM191.562 317.75 191.562 314.156C191.562 310.531 188.625 307.594 185 307.594 181.375 307.594 178.438 310.531 178.438 314.156L178.438 317.75 176.25 317.906 176.25 329.781 185 330.406 193.75 329.781 193.75 317.906 191.562 317.75Z" fill="#FFFFFF"/></g></svg>