<svg width="31" height="30" xmlns="http://www.w3.org/2000/svg" xmlns:xlink="http://www.w3.org/1999/xlink" xml:space="preserve" overflow="hidden"><g transform="translate(-139 -304)"><path d="M15.625 21.625 15.625 23.2812 14.375 23.2812 14.375 21.625C13.6562 21.375 13.125 20.6875 13.125 19.8438 13.125 18.8125 13.9688 17.9688 15 17.9688 16.0312 17.9688 16.875 18.8125 16.875 19.8438 16.875 20.6562 16.3438 21.3438 15.625 21.625ZM10.3125 10.1562C10.3125 7.5625 12.4062 5.46875 15 5.46875 17.5938 5.46875 19.6875 7.5625 19.6875 10.1562L19.6875 13.625 15 13.2812 10.3125 13.625 10.3125 10.1562ZM21.5625 13.75 21.5625 10.1562C21.5625 6.53125 18.625 3.59375 15 3.59375 11.375 3.59375 8.4375 6.53125 8.4375 10.1562L8.4375 13.75 6.25 13.9062 6.25 25.7812 15 26.4062 23.75 25.7812 23.75 13.9062 21.5625 13.75Z" fill="#242424" transform="matrix(1.03333 0 0 1 139 304)"/></g></svg>