<svg width="31" height="30" xmlns="http://www.w3.org/2000/svg" xmlns:xlink="http://www.w3.org/1999/xlink" xml:space="preserve" overflow="hidden"><g transform="translate(-465 -88)"><path d="M11.3291 28.4375 3.10562 25.0312 3.10562 4.68719 11.3291 1.28094 11.3291 28.4375Z" fill="#FFFFFF" transform="matrix(1.03333 0 0 1 465 88)"/><path d="M15.9394 9.975 17.8144 8.37344 17.8144 4.48938 12.5791 4.48938 12.5791 6.36437 15.9394 6.36437 15.9394 9.975Z" fill="#FFFFFF" transform="matrix(1.03333 0 0 1 465 88)"/><path d="M15.9394 19.0034 15.9394 23.2394 12.5791 23.2394 12.5791 25.1144 17.8144 25.1144 17.8144 20.605 15.9394 19.0034Z" fill="#FFFFFF" transform="matrix(1.03333 0 0 1 465 88)"/><path d="M20.0791 8.08313 20.0791 11.9894 26.8769 11.9894 26.8769 16.9894 20.0791 16.9894 20.0791 20.8956 12.5791 14.4894 20.0791 8.08313Z" fill="#FFFFFF" transform="matrix(1.03333 0 0 1 465 88)"/></g></svg>