<svg width="30" height="30" xmlns="http://www.w3.org/2000/svg" xmlns:xlink="http://www.w3.org/1999/xlink" xml:space="preserve" overflow="hidden"><g transform="translate(-684 -88)"><path d="M702.75 96.4375C702.75 99.1989 700.511 101.438 697.75 101.438 694.989 101.438 692.75 99.1989 692.75 96.4375 692.75 93.6761 694.989 91.4375 697.75 91.4375 700.511 91.4375 702.75 93.6761 702.75 96.4375Z" fill="#FFFFFF"/><path d="M699.625 110.188C699.63 107.285 701.731 104.812 704.594 104.336 703.719 103.917 702.809 103.575 701.875 103.312 700.538 102.903 699.148 102.693 697.75 102.688 696.353 102.712 694.966 102.922 693.625 103.312 691.877 103.823 690.229 104.626 688.75 105.688 688.133 106.17 687.766 106.905 687.75 107.688L687.75 112.688 700.184 112.688C699.817 111.905 699.626 111.052 699.625 110.188Z" fill="#FFFFFF"/><path d="M705.562 105.5C702.974 105.5 700.875 107.599 700.875 110.188 700.875 112.776 702.974 114.875 705.562 114.875 708.151 114.875 710.25 112.776 710.25 110.188 710.25 107.599 708.151 105.5 705.562 105.5ZM707.75 110.5 706.031 110.5 706.031 112.219 705.094 112.219 705.094 110.5 703.375 110.5 703.375 109.562 705.094 109.562 705.094 107.844 706.031 107.844 706.031 109.562 707.75 109.562Z" fill="#FFFFFF"/></g></svg>