<svg width="30" height="30" xmlns="http://www.w3.org/2000/svg" xmlns:xlink="http://www.w3.org/1999/xlink" xml:space="preserve" overflow="hidden"><g transform="translate(-170 -266)"><path d="M190 275.375C190 278.136 187.761 280.375 185 280.375 182.239 280.375 180 278.136 180 275.375 180 272.614 182.239 270.375 185 270.375 187.761 270.375 190 272.614 190 275.375Z" fill="#FFFFFF"/><path d="M195 291.625 195 286.625C195 285.875 194.625 285.125 194 284.625 192.625 283.5 190.875 282.75 189.125 282.25 187.875 281.875 186.5 281.625 185 281.625 183.625 281.625 182.25 281.875 180.875 282.25 179.125 282.75 177.375 283.625 176 284.625 175.375 285.125 175 285.875 175 286.625L175 291.625 195 291.625Z" fill="#FFFFFF"/></g></svg>